<svg xmlns="http://www.w3.org/2000/svg" width="246" height="205" viewBox="0 0 246 205">
<path d="M 91,0 90,1 89,1 84,6 84,7 82,9 82,10 81,11 81,13 80,14 79,13 79,8 80,7 80,4 78,6 78,7 76,9 76,10 75,11 75,13 74,14 74,16 73,17 73,18 72,19 71,18 71,12 70,11 70,7 70,8 69,9 69,10 68,11 68,13 67,14 67,23 66,24 65,23 65,22 64,21 64,20 63,19 63,17 62,16 62,14 61,13 61,14 60,15 60,21 59,22 58,21 57,21 56,20 56,21 55,22 55,25 56,26 56,29 55,30 54,30 53,29 51,29 50,28 50,33 51,34 50,35 47,35 47,39 48,40 47,41 46,41 46,44 48,46 47,47 45,47 44,48 44,50 45,51 44,52 42,52 42,53 43,54 43,55 44,56 43,57 42,57 41,58 41,60 43,62 42,63 41,63 40,64 39,64 39,65 40,66 40,67 39,68 38,68 37,69 36,68 36,66 35,65 35,62 34,61 34,59 33,58 33,55 32,54 32,53 33,52 33,49 32,49 31,50 29,48 29,45 28,44 28,32 29,31 29,29 30,28 30,26 31,25 26,30 26,31 25,32 25,33 24,34 24,39 23,40 22,40 21,39 21,28 22,27 22,23 23,22 23,21 21,23 21,24 20,25 20,26 19,27 19,28 18,29 18,32 17,33 17,42 16,43 15,42 15,41 14,40 14,39 13,38 13,35 12,34 12,30 11,30 11,35 10,36 10,38 11,39 11,42 12,43 12,44 11,45 7,41 7,40 6,39 6,38 4,36 4,40 5,41 5,44 6,45 6,46 8,48 8,49 7,50 6,50 3,47 2,47 1,46 1,49 3,51 3,52 5,54 6,54 7,55 6,56 4,56 3,55 2,55 1,54 0,54 1,55 1,56 6,61 7,61 8,62 7,63 3,63 7,67 8,67 9,68 8,69 6,69 7,70 8,70 9,71 11,71 12,72 11,73 10,73 11,74 13,74 15,76 14,77 13,77 14,78 18,78 19,79 16,82 20,82 21,83 19,85 20,86 22,86 23,87 22,88 25,88 26,89 25,90 25,91 26,92 27,91 28,92 28,94 29,94 30,93 31,94 31,95 30,96 30,98 31,98 32,97 33,98 33,101 34,102 34,103 35,103 36,104 36,105 34,107 34,108 28,114 28,115 25,118 25,119 22,122 22,123 19,126 19,127 9,137 8,137 8,140 9,140 10,141 10,142 11,143 13,143 14,144 14,145 16,147 18,147 19,148 19,149 23,149 24,150 26,150 27,149 28,150 29,150 30,151 31,151 32,150 34,150 35,151 36,151 37,150 42,150 43,151 43,154 44,155 44,163 43,164 42,164 39,167 38,167 35,170 35,171 34,172 34,176 35,177 35,178 38,181 38,182 39,183 39,186 40,187 40,188 48,188 49,187 52,187 53,186 57,186 58,185 61,185 62,184 67,184 68,183 71,183 72,182 77,182 78,181 83,181 84,180 95,180 96,181 99,181 100,182 100,183 99,184 99,185 98,186 98,190 99,191 99,192 100,193 100,195 101,196 101,199 102,200 102,201 103,202 105,202 106,203 110,203 111,204 134,204 135,203 139,203 140,202 142,202 143,201 143,200 144,199 144,196 145,195 145,193 146,192 146,191 147,190 147,186 146,185 146,184 145,183 145,182 146,181 149,181 150,180 161,180 162,181 167,181 168,182 173,182 174,183 178,183 179,184 183,184 184,185 187,185 188,186 192,186 193,187 196,187 197,188 205,188 205,187 206,186 206,183 208,181 208,180 210,178 210,177 211,176 211,172 210,171 210,170 207,167 206,167 203,164 202,164 201,163 201,155 202,154 202,151 203,150 208,150 209,151 210,151 211,150 213,150 214,151 215,151 216,150 217,150 218,149 219,150 221,150 222,149 225,149 227,147 229,147 231,145 231,144 232,143 234,143 235,142 235,141 236,140 237,140 237,138 226,127 226,126 223,123 223,122 220,119 220,118 217,115 217,114 211,108 211,107 209,105 209,104 210,103 211,103 211,102 212,101 212,98 213,97 214,98 215,98 215,96 214,95 214,94 215,93 216,94 217,94 217,92 218,91 219,92 220,91 220,90 219,89 220,88 223,88 222,87 223,86 225,86 226,85 224,83 225,82 229,82 226,79 227,78 231,78 231,77 230,76 232,74 234,74 235,73 234,73 233,72 234,71 236,71 237,70 238,70 239,69 237,69 236,68 237,67 238,67 242,63 238,63 237,62 238,61 239,61 244,56 244,55 245,54 244,54 243,55 242,55 241,56 239,56 238,55 239,54 240,54 242,52 242,51 243,50 243,49 244,48 244,46 243,47 242,47 239,50 238,50 237,49 237,48 239,46 239,44 240,43 240,41 241,40 241,36 239,38 239,39 238,40 238,41 234,45 233,44 233,43 234,42 234,39 235,38 235,36 234,35 234,30 233,30 233,34 232,35 232,37 231,38 231,40 230,41 230,42 229,43 228,42 228,33 227,32 227,30 226,29 226,27 225,26 225,25 224,24 224,23 222,21 222,22 223,23 223,27 224,28 224,39 223,40 223,41 222,42 221,41 221,34 220,33 220,32 219,31 219,30 214,25 214,26 215,27 215,28 216,29 216,32 217,33 217,44 216,45 216,48 214,50 213,49 212,49 212,52 213,53 213,54 212,55 212,58 211,59 211,61 210,62 210,65 209,66 209,68 208,69 207,68 206,68 205,67 205,66 206,65 206,64 205,64 204,63 203,63 202,62 204,60 204,58 203,57 202,57 201,56 202,55 202,54 203,53 203,52 201,52 200,51 201,50 201,48 200,47 198,47 197,46 198,45 198,44 199,43 199,42 197,40 197,39 198,38 198,35 195,35 194,34 195,33 195,28 194,29 192,29 191,30 190,30 189,29 189,26 190,25 190,23 189,22 189,20 188,21 187,21 186,22 185,21 185,15 184,14 184,13 183,14 183,16 182,17 182,19 181,20 181,21 180,22 180,23 179,24 178,23 178,14 177,13 177,11 176,10 176,9 175,8 175,7 175,10 174,11 174,18 173,19 172,18 172,17 171,16 171,14 170,13 170,11 169,10 169,9 167,7 167,6 165,4 165,7 166,8 166,13 165,14 164,13 164,12 163,11 163,9 161,7 161,6 156,1 155,1 154,0 153,0 154,1 154,2 155,3 155,4 156,5 156,6 157,7 157,8 158,9 158,11 159,12 159,13 160,14 160,16 161,17 161,18 160,19 158,17 158,16 156,14 156,13 153,10 153,9 150,6 149,6 147,4 146,4 145,3 144,3 143,2 141,2 142,3 143,3 146,6 146,7 149,10 149,11 151,13 151,14 152,15 152,16 153,17 153,18 155,20 155,21 156,22 156,23 157,24 157,26 158,27 158,28 159,29 159,30 160,31 160,33 161,34 161,36 162,37 162,39 163,40 163,42 164,43 164,44 165,45 165,46 166,47 166,48 168,50 169,50 170,51 172,51 173,52 174,52 175,53 176,53 186,63 186,64 188,66 188,67 189,68 189,69 190,70 190,71 191,72 191,76 192,77 192,78 191,79 191,81 189,83 188,83 187,82 187,81 177,71 176,71 175,70 174,70 173,69 171,69 170,68 164,68 163,69 159,69 158,70 158,72 160,72 161,73 162,73 174,85 174,86 173,87 173,89 174,90 174,94 175,95 173,97 173,98 175,100 174,101 174,103 173,104 167,104 169,106 170,106 172,108 172,109 171,110 171,112 170,113 171,113 172,112 173,112 175,110 177,112 178,112 181,115 180,116 180,117 177,120 176,120 174,122 173,122 172,123 169,123 168,122 169,121 169,120 170,119 170,117 169,116 169,115 167,113 166,113 164,111 164,80 147,80 146,79 148,77 148,75 147,74 147,73 146,73 145,72 144,72 141,69 141,68 140,67 140,64 139,63 139,61 138,60 138,58 137,57 137,54 136,53 136,51 135,50 135,48 137,46 138,46 141,43 142,43 145,40 146,40 149,37 150,37 153,34 131,34 130,33 130,32 129,31 129,29 128,28 128,26 127,25 127,24 126,23 126,21 125,20 125,18 124,17 124,15 123,14 123,12 122,12 122,14 121,15 121,17 120,18 120,20 119,21 119,23 118,24 118,26 117,27 117,28 116,29 116,31 115,32 115,33 114,34 92,34 94,36 95,36 99,40 100,40 103,43 104,43 107,46 108,46 110,48 110,50 109,51 109,53 108,54 108,56 107,57 107,60 106,61 106,63 105,64 105,66 104,67 104,69 102,71 101,71 100,72 99,72 98,73 98,74 97,75 97,76 98,77 98,78 99,79 98,80 81,80 81,111 79,113 78,113 75,116 75,119 76,120 76,121 77,122 76,123 73,123 72,122 71,122 69,120 68,120 65,117 65,116 64,115 67,112 68,112 70,110 72,112 73,112 74,113 75,113 74,112 74,110 73,109 73,108 75,106 76,106 78,104 72,104 71,103 71,101 70,100 72,98 72,97 70,95 71,94 71,89 72,88 71,87 71,85 83,73 84,73 85,72 87,72 87,70 86,69 82,69 81,68 75,68 74,69 72,69 71,70 70,70 69,71 68,71 58,81 58,82 57,83 56,83 54,81 54,79 53,78 53,77 54,76 54,72 55,71 55,70 56,69 56,68 57,67 57,66 59,64 59,63 69,53 70,53 71,52 72,52 73,51 75,51 76,50 77,50 79,48 79,47 80,46 80,45 81,44 81,43 82,42 82,40 83,39 83,37 84,36 84,34 85,33 85,31 86,30 86,29 87,28 87,27 88,26 88,24 89,23 89,22 90,21 90,20 92,18 92,17 93,16 93,15 94,14 94,13 96,11 96,10 99,7 99,6 102,3 103,3 104,2 102,2 101,3 100,3 99,4 98,4 96,6 95,6 92,9 92,10 89,13 89,14 87,16 87,17 85,19 84,18 84,17 85,16 85,14 86,13 86,11 87,10 87,9 88,8 88,7 89,6 89,5 90,4 90,3 91,2 91,1 92,0 Z" fill="black" stroke="none"/>
</svg>